<?xml version="1.0" encoding="UTF-8" standalone="no"?>
<svg
   height="128"
   width="128"
   version="1.1"
   id="svg7"
   sodipodi:docname="icon.svg"
   xml:space="preserve"
   inkscape:version="1.3 (0e150ed6c4, 2023-07-21)"
   xmlns:inkscape="http://www.inkscape.org/namespaces/inkscape"
   xmlns:sodipodi="http://sodipodi.sourceforge.net/DTD/sodipodi-0.dtd"
   xmlns="http://www.w3.org/2000/svg"
   xmlns:svg="http://www.w3.org/2000/svg"><defs
     id="defs7" /><sodipodi:namedview
     id="namedview7"
     pagecolor="#505050"
     bordercolor="#eeeeee"
     borderopacity="1"
     inkscape:showpageshadow="0"
     inkscape:pageopacity="0"
     inkscape:pagecheckerboard="0"
     inkscape:deskcolor="#505050"
     inkscape:zoom="3.67615"
     inkscape:cx="54.268732"
     inkscape:cy="64.741645"
     inkscape:window-width="1920"
     inkscape:window-height="1017"
     inkscape:window-x="-8"
     inkscape:window-y="-8"
     inkscape:window-maximized="1"
     inkscape:current-layer="svg7" /><rect
     x="2"
     y="2"
     width="124"
     height="124"
     rx="14"
     fill="#363d52"
     stroke="#212532"
     stroke-width="4"
     id="rect1"
     style="stroke:none;fill:#a1cd6a;fill-opacity:1" /><path
     style="fill:#5d9e2f;fill-opacity:1;stroke:#265d1d;stroke-width:5;stroke-opacity:1;stroke-dasharray:none"
     d="M 14.861942,84.395299 C 9.1916473,71.845863 26.493033,72.404332 33.827312,71.492711 36.313402,66.28918 22.284829,52.966433 27.870475,44.841287 41.317259,30.749759 57.68688,50.66019 60.854178,54.822708 c 3.173998,4.684545 2.724652,-4.25619 3.274789,-6.400024 1.098186,-7.30028 2.026526,-15.322114 7.055624,-21.091534 5.117618,-4.401563 14.38017,-5.501465 18.99199,0.236982 4.906049,8.637466 1.764201,20.883476 1.039286,30.55278 4.564226,-2.755877 9.359183,-6.607008 15.048943,-5.336922 6.03482,1.135487 10.00227,8.81465 6.4083,14.136289 -9.04812,10.529241 -14.660519,23.153453 -21.724572,34.920221 -11.911644,5.03913 -38.506825,2.76732 -51.514206,1.91903 -0.722024,-0.14757 -20.864363,-13.187075 -24.57239,-19.364231 z"
     id="path1"
     sodipodi:nodetypes="ccccccccccccc" /><path
     style="fill:#4d8f23;fill-opacity:1;stroke:none;stroke-width:5;stroke-linecap:round;stroke-dasharray:none;stroke-opacity:1;paint-order:stroke fill markers"
     d="m 40.250403,99.102347 c 0,0 -19.483986,-13.58327 -15.131607,-18.751721 6.528569,-5.440474 15.777382,5.984522 18.769642,9.248807 2.99226,3.264284 4.35238,4.080355 4.35238,4.080355 0,0 -3.26429,-17.335092 2.17619,-17.335092 5.44047,0 11.69702,14.342831 11.69702,14.342831 0,0 3.80833,-19.857731 10.06488,-19.04166 6.25654,0.816071 5.98452,20.945827 5.98452,20.945827 0,0 9.2488,-22.469039 16.86547,-26.331836 7.616662,-3.862798 9.792852,-4.624403 14.961302,-1.632142 -8.97678,6.528569 -20.945828,32.570465 -20.945828,32.570465 0,0 -2.005889,4.352379 -48.793969,1.904166 z"
     id="path2"
     sodipodi:nodetypes="ccscscscsccc" /></svg>
