<?xml version="1.0" encoding="UTF-8" standalone="no"?>
<!-- Created with Inkscape (http://www.inkscape.org/) -->

<svg
   width="719.96442"
   height="720.04187"
   viewBox="0 0 190.49058 190.51108"
   version="1.1"
   id="svg1"
   sodipodi:docname="cortinilla.svg"
   inkscape:version="1.3.2 (091e20ef0f, 2023-11-25, custom)"
   xmlns:inkscape="http://www.inkscape.org/namespaces/inkscape"
   xmlns:sodipodi="http://sodipodi.sourceforge.net/DTD/sodipodi-0.dtd"
   xmlns="http://www.w3.org/2000/svg"
   xmlns:svg="http://www.w3.org/2000/svg">
  <sodipodi:namedview
     id="namedview1"
     pagecolor="#ffffff"
     bordercolor="#000000"
     borderopacity="0.25"
     inkscape:showpageshadow="2"
     inkscape:pageopacity="0.0"
     inkscape:pagecheckerboard="0"
     inkscape:deskcolor="#d1d1d1"
     inkscape:document-units="mm"
     inkscape:zoom="0.75544333"
     inkscape:cx="211.1343"
     inkscape:cy="461.98038"
     inkscape:window-width="1875"
     inkscape:window-height="1052"
     inkscape:window-x="45"
     inkscape:window-y="0"
     inkscape:window-maximized="1"
     inkscape:current-layer="layer1" />
  <defs
     id="defs1" />
  <g
     inkscape:label="Layer 1"
     inkscape:groupmode="layer"
     id="layer1"
     transform="translate(-0.54054338,-0.15137716)">
    <rect
       style="fill:#27424c;fill-opacity:1;stroke-width:0.240844"
       id="rect1"
       width="137.54991"
       height="190.50078"
       x="25.600771"
       y="0.1616793"
       ry="0.019064682" />
    <rect
       style="fill:#27424c;fill-opacity:1;stroke-width:0.240844"
       id="rect2"
       width="14.755658"
       height="4.9251504"
       x="14.487155"
       y="-1.7787197"
       ry="0.019064682" />
    <rect
       style="fill:#27424c;fill-opacity:1;stroke-width:0.240844"
       id="rect3"
       width="12.445847"
       height="15.266063"
       x="19.514057"
       y="40.068386"
       ry="0.019064682" />
    <rect
       style="fill:#27424c;fill-opacity:1;stroke-width:0.240844"
       id="rect4"
       width="11.505935"
       height="20.320425"
       x="19.606386"
       y="86.271179"
       ry="0.019064682" />
    <rect
       style="fill:#27424c;fill-opacity:1;stroke-width:0.240844"
       id="rect5"
       width="13.428202"
       height="18.026245"
       x="18.989502"
       y="133.70865"
       ry="0.019064682" />
    <rect
       style="fill:#27424c;fill-opacity:1;stroke-width:0.240844"
       id="rect6"
       width="2.0063574"
       height="1.9254034"
       x="24.210432"
       y="188.73224"
       ry="0.019064682" />
    <rect
       style="fill:#27424c;fill-opacity:1;stroke-width:0.240844"
       id="rect7"
       width="14.966075"
       height="21.484604"
       x="159.80988"
       y="157.18636"
       ry="0.019064682" />
    <rect
       style="fill:#27424c;fill-opacity:1;stroke-width:0.240844"
       id="rect8"
       width="13.335054"
       height="17.671848"
       x="158.18036"
       y="111.44539"
       ry="0.019064682" />
    <rect
       style="fill:#27424c;fill-opacity:1;stroke-width:0.240844"
       id="rect9"
       width="17.280499"
       height="22.187565"
       x="155.73305"
       y="59.833248"
       ry="0.019064682" />
    <rect
       style="fill:#27424c;fill-opacity:1;stroke-width:0.240844"
       id="rect10"
       width="11.228824"
       height="18.398434"
       x="157.53696"
       y="16.309072"
       ry="0.019064682" />
    <path
       stroke="none"
       fill="#000000"
       d="m 167.21981,0.16076778 c 0,0 23.81132,12.58656022 23.81132,23.81132622 0,11.224766 -23.81132,12.586564 -23.81132,23.811329 0,11.224765 23.81132,12.586553 23.81132,23.811318 0,11.224765 -23.81132,12.58657 -23.81132,23.811334 0,11.224765 23.81132,12.586545 23.81132,23.811305 0,11.22476 -23.81132,12.58657 -23.81132,23.81134 0,11.22477 23.81132,12.58656 23.81132,23.81133 0,11.22477 -14.95969,20.14486 -23.81132,23.81133 -8.85163,3.66647 -20.14486,8.85163 -23.81133,0 -3.66647,-8.85163 23.81133,-12.58656 23.81133,-23.81133 0,-11.22477 -23.81133,-12.58656 -23.81133,-23.81133 0,-11.22477 23.81133,-12.58657 23.81133,-23.81134 0,-11.22477 -23.81133,-12.58654 -23.81133,-23.811305 0,-11.224766 23.81133,-12.586566 23.81133,-23.811334 0,-11.224768 -23.81133,-12.586551 -23.81133,-23.811318 0,-11.224767 23.81133,-12.586561 23.81133,-23.811329 0,-11.224768 -27.4778,-14.9596928 -23.81133,-23.81132622 3.66647,-8.85163348 23.81133,0 23.81133,0 M 119.59717,190.65138 c 0,0 -20.14487,8.85164 -23.811337,0 -3.666467,-8.85164 23.811337,-12.58656 23.811337,-23.81133 0,-11.22477 -23.811336,-12.58656 -23.811337,-23.81133 -10e-7,-11.22477 23.811337,-12.58657 23.811337,-23.81134 0,-11.22477 -23.811334,-12.58654 -23.811337,-23.811305 -3e-6,-11.224768 23.811337,-12.586565 23.811337,-23.811334 0,-11.224769 -23.811336,-12.586549 -23.811337,-23.811318 -10e-7,-11.224769 23.811337,-12.586559 23.811337,-23.811329 0,-11.22477 -27.477803,-14.9596907 -23.811337,-23.81132622 3.666466,-8.85163558 14.959707,-3.66646758 23.811337,0 8.85163,3.66646762 23.81131,12.58656322 23.81131,23.81132622 0,11.224763 -23.81131,12.586567 -23.81131,23.811329 0,11.224762 23.81131,12.586555 23.81131,23.811318 0,11.224763 -23.81131,12.586573 -23.81131,23.811334 0,11.224765 23.81131,12.586545 23.81131,23.811305 0,11.22476 -23.81131,12.58657 -23.81131,23.81134 0,11.22477 23.81131,12.58657 23.81131,23.81133 0,11.22476 -23.81131,23.81133 -23.81131,23.81133 m -47.622662,0 c 0,0 -20.144852,8.85163 -23.811319,0 -3.666467,-8.85163 23.811319,-12.58656 23.811319,-23.81133 0,-11.22477 -23.811318,-12.58656 -23.811319,-23.81133 -1e-6,-11.22477 23.811323,-12.58658 23.811319,-23.81134 -4e-6,-11.22476 -23.811316,-12.58654 -23.811319,-23.811305 -3e-6,-11.224764 23.811321,-12.586569 23.811319,-23.811334 -2e-6,-11.224765 -23.811318,-12.586554 -23.811319,-23.811318 -1e-6,-11.224764 23.811319,-12.586564 23.811319,-23.811329 0,-11.224765 -27.477785,-14.9596961 -23.811319,-23.81132622 3.666466,-8.85163018 14.959688,-3.66646578 23.811319,0 8.851631,3.66646572 23.811325,12.58655922 23.811325,23.81132622 0,11.224767 -23.811326,12.586563 -23.811325,23.811329 10e-7,11.224766 23.811323,12.586552 23.811325,23.811318 2e-6,11.224766 -23.811328,12.586569 -23.811325,23.811334 3e-6,11.224765 23.811321,12.586535 23.811325,23.811305 4e-6,11.22477 -23.811326,12.58657 -23.811325,23.81134 10e-7,11.22477 23.811325,12.58656 23.811325,23.81133 0,11.22477 -23.811325,23.81133 -23.811325,23.81133 m -47.622646,0 c 0,0 -20.1448521,8.85163 -23.81131862,0 C -3.1259232,181.79975 24.351862,178.06482 24.351862,166.84005 24.351862,155.61528 0.54054456,154.25349 0.54054338,143.02872 0.5405422,131.80395 24.351866,130.44214 24.351862,119.21738 24.351858,107.99262 0.5405468,106.63084 0.54054338,95.406075 0.54053996,84.181312 24.351864,82.819506 24.351862,71.594741 24.35186,60.369976 0.54054468,59.008187 0.54054338,47.783423 0.54054208,36.558659 24.351862,35.196859 24.351862,23.972094 24.351862,12.747329 -3.1259227,9.0123978 0.54054338,0.16076778 4.2070094,-8.6908622 15.500231,-3.5056979 24.351862,0.16076778 33.203493,3.8272334 48.163189,12.747327 48.163189,23.972094 c 0,11.224767 -23.811328,12.586563 -23.811327,23.811329 1e-6,11.224766 23.811325,12.586551 23.811327,23.811318 2e-6,11.224767 -23.81133,12.586569 -23.811327,23.811334 3e-6,11.224765 23.811323,12.586535 23.811327,23.811305 4e-6,11.22477 -23.811328,12.58657 -23.811327,23.81134 1e-6,11.22477 23.811327,12.58656 23.811327,23.81133 0,11.22477 -23.811327,23.81133 -23.811327,23.81133"
       id="path107"
       style="display:inline;fill:#295260;fill-opacity:1;stroke-width:2.97641"
       inkscape:label="path107"
       sodipodi:nodetypes="czzzzzzzzzzzzzzzzzcczzzzzzzzzzzzzzzzzcczzzzzzzzzzzzzzzzzcczzzzzzzzzzzzzzzzzc" />
  </g>
</svg>
